<?xml version="1.0" encoding="UTF-8" standalone="no"?>
<!-- Created with Inkscape (http://www.inkscape.org/) -->

<svg
   xmlns:dc="http://purl.org/dc/elements/1.1/"
   xmlns:cc="http://creativecommons.org/ns#"
   xmlns:rdf="http://www.w3.org/1999/02/22-rdf-syntax-ns#"
   xmlns:svg="http://www.w3.org/2000/svg"
   xmlns="http://www.w3.org/2000/svg"
   xmlns:sodipodi="http://sodipodi.sourceforge.net/DTD/sodipodi-0.dtd"
   xmlns:inkscape="http://www.inkscape.org/namespaces/inkscape"
   width="210mm"
   height="297mm"
   viewBox="0 0 210 297"
   version="1.1"
   id="svg8"
   inkscape:version="0.92.1 r15371"
   sodipodi:docname="dibujo.svg">
  <defs
     id="defs2" />
  <sodipodi:namedview
     id="base"
     pagecolor="#ffffff"
     bordercolor="#666666"
     borderopacity="1.0"
     inkscape:pageopacity="0.0"
     inkscape:pageshadow="2"
     inkscape:zoom="1.4"
     inkscape:cx="756.45443"
     inkscape:cy="759.40553"
     inkscape:document-units="mm"
     inkscape:current-layer="layer1"
     showgrid="false"
     inkscape:window-width="1920"
     inkscape:window-height="1017"
     inkscape:window-x="-8"
     inkscape:window-y="-8"
     inkscape:window-maximized="1" />
  <metadata
     id="metadata5">
    <rdf:RDF>
      <cc:Work
         rdf:about="">
        <dc:format>image/svg+xml</dc:format>
        <dc:type
           rdf:resource="http://purl.org/dc/dcmitype/StillImage" />
        <dc:title></dc:title>
      </cc:Work>
    </rdf:RDF>
  </metadata>
  <g
     inkscape:label="Capa 1"
     inkscape:groupmode="layer"
     id="layer1">
    <g
       id="g4936"
       transform="matrix(0.45081198,0,0,0.55236865,58.67459,-446.0621)"
       inkscape:export-xdpi="90"
       inkscape:export-ydpi="90">
      <path
         inkscape:connector-curvature="0"
         id="path7189-3-1-1"
         d="m 110.97251,871.68739 v 130.66921 h 50.04232 V 871.68739 Z"
         style="fill:#30477e;fill-opacity:1;fill-rule:evenodd;stroke:#000000;stroke-width:0.33067772px;stroke-linecap:butt;stroke-linejoin:miter;stroke-opacity:1" />
      <path
         inkscape:connector-curvature="0"
         id="path8484-8-7-2"
         d="m 132.32409,893.61963 c -5.76207,-0.65084 -9.98141,-2.83193 -12.46151,-6.44171 -0.31582,-0.45966 -0.5742,-0.88154 -0.5742,-0.9375 0,-0.056 3.77679,-0.10176 8.39286,-0.10176 h 8.39286 v -0.625 -0.625 h -8.74283 -8.74282 l -0.36432,-1.17952 c -0.20037,-0.64874 -0.36432,-1.29159 -0.36432,-1.42857 0,-0.21144 2.83465,-0.24905 18.76988,-0.24905 h 18.76987 l -0.12493,0.66964 c -0.36363,1.94914 -1.75718,4.57311 -3.2808,6.17752 -2.37394,2.49983 -6.49873,4.23203 -11.31448,4.7515 -1.99978,0.21572 -6.4012,0.21016 -8.35525,-0.0105 z"
         style="fill:#ffffff;fill-opacity:1;stroke:#0000ff;stroke-width:0.26785713;stroke-linecap:round;stroke-linejoin:miter;stroke-miterlimit:4;stroke-dasharray:none;stroke-opacity:0" />
      <path
         inkscape:connector-curvature="0"
         id="path8486-0-9-2"
         d="m 119.1098,907.3698 c 0,-0.72563 0.5664,-2.55095 1.15298,-3.71576 2.69067,-5.34297 8.28742,-8.11941 16.34702,-8.10945 5.86665,0.007 10.12164,1.36564 13.57143,4.33265 l 0.625,0.53753 -7.45536,0.005 -7.45535,0.005 v 0.625 0.625 h 7.93427 7.93426 l 0.37337,0.52433 c 0.86891,1.22028 1.96465,4.08179 1.97026,5.14531 l 0.002,0.40179 h -17.5 -17.5 v -0.37601 z"
         style="fill:#ffffff;fill-opacity:1;stroke:#0000ff;stroke-width:0.26785713;stroke-linecap:round;stroke-linejoin:miter;stroke-miterlimit:4;stroke-dasharray:none;stroke-opacity:0" />
      <path
         inkscape:connector-curvature="0"
         id="path8488-6-0-8"
         d="m 134.51674,921.11476 c -3.28708,-0.23242 -5.95342,-0.93592 -8.44264,-2.22757 l -1.3393,-0.69495 5.66965,-0.0471 5.66964,-0.0472 v -0.62249 -0.62249 h -6.50288 -6.50287 l -0.98251,-1.08571 c -0.54038,-0.59714 -1.26241,-1.62169 -1.60451,-2.27678 -0.66619,-1.27572 -1.37152,-3.36725 -1.37152,-4.06703 v -0.42762 h 17.5 17.5 v 0.42762 c 0,0.69869 -0.70362,2.78645 -1.39055,4.12595 -0.97155,1.89453 -3.38774,4.22795 -5.48445,5.29657 -2.5623,1.30592 -5.0812,2.00344 -7.9775,2.20909 -2.6414,0.18755 -2.88871,0.19066 -4.74056,0.0597 z"
         style="fill:#ffffff;fill-opacity:1;stroke:#0000ff;stroke-width:0.26785713;stroke-linecap:round;stroke-linejoin:miter;stroke-miterlimit:4;stroke-dasharray:none;stroke-opacity:0" />
      <path
         inkscape:connector-curvature="0"
         id="path8490-0-3-5"
         d="m 117.89056,934.36238 c 0.45809,-2.52032 1.65462,-4.76889 3.52369,-6.62186 3.42468,-3.39516 7.90806,-4.81614 15.19555,-4.81614 1.62569,0 3.63673,0.0838 4.46897,0.18618 4.71141,0.57968 8.3868,2.17136 10.88208,4.71264 l 0.97605,0.99404 h -8.52069 -8.52068 v 0.625 0.625 h 8.92555 8.92556 l 0.42475,0.84821 c 0.51269,1.02384 0.951,2.33552 1.1636,3.48214 l 0.15728,0.84822 h -18.88114 -18.88114 z"
         style="fill:#ffffff;fill-opacity:1;stroke:#0000ff;stroke-width:0.26785713;stroke-linecap:round;stroke-linejoin:miter;stroke-miterlimit:4;stroke-dasharray:none;stroke-opacity:0" />
      <path
         inkscape:connector-curvature="0"
         id="path8492-0-5-0"
         d="m 131.80342,948.45557 c -2.70208,-0.37473 -5.75465,-1.32741 -7.42575,-2.31752 l -0.89287,-0.52901 6.29465,-0.003 6.29464,-0.003 v -0.625 -0.625 h -7.12788 -7.12787 l -0.98251,-1.08571 c -1.44812,-1.60022 -2.53211,-3.84143 -2.95122,-6.10179 l -0.15727,-0.84821 h 18.88114 18.88114 l -0.16057,0.88343 c -0.45584,2.50796 -1.65256,4.75897 -3.5255,6.63135 -2.14731,2.1467 -4.75131,3.46518 -8.49732,4.30246 -1.31221,0.2933 -2.41,0.3703 -5.98214,0.41959 -2.40625,0.0332 -4.89055,-0.0111 -5.52067,-0.0985 z"
         style="fill:#ffffff;fill-opacity:1;stroke:#0000ff;stroke-width:0.26785713;stroke-linecap:round;stroke-linejoin:miter;stroke-miterlimit:4;stroke-dasharray:none;stroke-opacity:0" />
      <path
         inkscape:connector-curvature="0"
         id="path8494-1-9-1"
         d="m 119.1098,962.13962 c 0,-0.69978 0.70533,-2.79132 1.37152,-4.06703 0.3421,-0.65509 1.06414,-1.67965 1.60452,-2.27679 l 0.9825,-1.08571 h 6.50287 6.50288 v -0.62249 -0.62249 l -5.66963,-0.0472 -5.66965,-0.0471 1.42857,-0.73662 c 3.1709,-1.63501 5.58314,-2.12053 10.53572,-2.12053 3.93107,0 5.02813,0.14387 7.76786,1.01864 4.59808,1.46813 7.9748,4.73098 9.26809,8.95553 0.20612,0.67329 0.37476,1.4166 0.37476,1.65179 v 0.42762 h -17.5 -17.5 v -0.42762 z"
         style="fill:#ffffff;fill-opacity:1;stroke:#0000ff;stroke-width:0.26785713;stroke-linecap:round;stroke-linejoin:miter;stroke-miterlimit:4;stroke-dasharray:none;stroke-opacity:0" />
      <path
         inkscape:connector-curvature="0"
         id="path8496-4-8-7"
         d="m 134.37766,976.03017 c -7.13479,-0.73865 -11.72618,-3.35933 -14.07194,-8.03197 -0.62372,-1.24241 -1.19591,-3.06291 -1.19591,-3.80495 v -0.37601 h 17.5 17.5 v 0.37601 c 0,1.48496 -1.35975,4.50933 -2.86082,6.36304 l -0.90212,1.11405 -7.18103,0.0467 -7.18103,0.0467 -0.0558,0.57808 -0.0558,0.57809 6.3637,0.0469 6.3637,0.0469 -1.21863,0.65809 c -1.56121,0.84311 -3.99648,1.65362 -6.04005,2.01026 -1.62335,0.2833 -5.6475,0.48447 -6.96429,0.34815 z"
         style="fill:#ffffff;fill-opacity:1;stroke:#0000ff;stroke-width:0.26785713;stroke-linecap:round;stroke-linejoin:miter;stroke-miterlimit:4;stroke-dasharray:none;stroke-opacity:0" />
      <path
         inkscape:connector-curvature="0"
         id="path8498-6-0-9"
         d="m 117.8598,989.25051 c 0,-0.15456 0.20555,-0.89786 0.45675,-1.65179 1.67313,-5.02133 5.9085,-8.23453 12.44976,-9.4451 2.35583,-0.43599 9.35424,-0.42916 11.70984,0.0114 3.37394,0.63104 5.92289,1.66175 8.03392,3.24865 1.15503,0.86825 2.66933,2.53907 3.15845,3.48491 l 0.27189,0.52578 h -9.02244 -9.02244 v 0.625 0.625 h 9.36782 9.36783 l 0.36432,1.17952 c 0.20037,0.64874 0.36431,1.2916 0.36431,1.42857 0,0.21144 -2.83177,0.24905 -18.75,0.24905 -16.9378,0 -18.75,-0.0272 -18.75,-0.28101 z"
         style="fill:#ffffff;fill-opacity:1;stroke:#0000ff;stroke-width:0.26785713;stroke-linecap:round;stroke-linejoin:miter;stroke-miterlimit:4;stroke-dasharray:none;stroke-opacity:0" />
    </g>
  </g>
</svg>
